<svg xmlns="http://www.w3.org/2000/svg" width="218.15" height="84.72" viewBox="0 0 218.15 84.72"><defs><style>.cls-1{fill:#fff;}.cls-2{fill:#241f20;}</style></defs><g id="Layer_2" data-name="Layer 2"><g id="Layer_2-2" data-name="Layer 2"><rect class="cls-1" width="218.15" height="84.72"/><path class="cls-2" d="M56.13,21.08A24.45,24.45,0,0,1,61.22,25a24.63,24.63,0,0,1,6.37,11c.13.5.25,1,.35,1.52l2.78-.1a2.38,2.38,0,0,1,1.62-1.37c-.09-.42-.19-.83-.3-1.24s-.23-.82-.36-1.22a2.58,2.58,0,0,1-2-4.71c-.19-.37-.4-.74-.61-1.11s-.43-.73-.66-1.09a2.57,2.57,0,0,1-3.1-4c-.29-.31-.58-.62-.88-.92s-.61-.59-.92-.88a2.57,2.57,0,0,1-4-3.1c-.36-.23-.72-.45-1.09-.66s-.74-.42-1.12-.61a2.57,2.57,0,0,1-4.7-2c-.4-.13-.81-.25-1.22-.36s-.82-.21-1.24-.3a2.38,2.38,0,0,1-1.37,1.62l-.1,2.78c.51.1,1,.22,1.52.35a24.37,24.37,0,0,1,5.92,2.46"/><path class="cls-2" d="M17,37.42l2.78.1c.1-.51.22-1,.36-1.52a24,24,0,0,1,2.45-5.92A24.65,24.65,0,0,1,37.48,18.62c.5-.13,1-.25,1.52-.35l-.1-2.78a2.38,2.38,0,0,1-1.37-1.62c-.41.09-.83.19-1.24.3s-.81.23-1.22.36a2.57,2.57,0,0,1-4.7,2c-.38.19-.75.4-1.12.61s-.73.43-1.09.66a2.57,2.57,0,0,1-4,3.1c-.31.29-.62.58-.92.88s-.59.61-.88.92a2.57,2.57,0,0,1-3.1,4c-.22.36-.45.72-.66,1.09s-.42.74-.61,1.12A2.57,2.57,0,0,1,16,33.59c-.13.4-.25.81-.36,1.22s-.21.82-.3,1.24A2.38,2.38,0,0,1,17,37.42"/><path class="cls-2" d="M70.72,47.31l-2.78-.1c-.1.51-.22,1-.35,1.52A24.65,24.65,0,0,1,50.21,66.11c-.5.13-1,.25-1.52.35l.1,2.78a2.36,2.36,0,0,1,1.37,1.62c.42-.09.83-.19,1.24-.3s.82-.23,1.22-.36a2.58,2.58,0,0,1,4.71-2c.37-.19.74-.4,1.11-.61s.73-.43,1.09-.66a2.57,2.57,0,0,1,4-3.1l.92-.88c.3-.3.59-.61.88-.92a2.57,2.57,0,0,1,3.1-4c.23-.36.45-.73.66-1.09s.42-.74.61-1.12a2.57,2.57,0,0,1,2-4.7c.13-.41.25-.81.36-1.22s.21-.83.3-1.24a2.38,2.38,0,0,1-1.62-1.37"/><path class="cls-2" d="M31.56,63.65a24.45,24.45,0,0,1-5.09-3.91,24.8,24.8,0,0,1-3.91-5.09,24.5,24.5,0,0,1-2.45-5.92c-.14-.51-.26-1-.36-1.53L17,47.31a2.42,2.42,0,0,1-1.63,1.37c.09.42.19.83.3,1.24s.23.82.36,1.22A2.57,2.57,0,0,1,18,55.84c.2.38.4.75.61,1.12s.44.73.66,1.09a2.57,2.57,0,0,1,3.1,4c.29.31.58.62.88.92s.61.59.92.88a2.57,2.57,0,0,1,4,3.1c.36.23.73.45,1.09.66s.74.42,1.12.61a2.57,2.57,0,0,1,4.7,2c.41.13.81.25,1.22.36s.83.21,1.24.3a2.38,2.38,0,0,1,1.37-1.62l.1-2.78c-.51-.1-1-.22-1.52-.35a24.53,24.53,0,0,1-5.92-2.46"/><path class="cls-2" d="M78,40.46v0L65,41A21.27,21.27,0,0,0,45.25,21.17l.49-12.95h0a10.65,10.65,0,0,0-3.79,0h0l.48,13A21.26,21.26,0,0,0,22.66,41l-13-.49v0a10.59,10.59,0,0,0,0,3.78v0l13-.48A21.27,21.27,0,0,0,42.44,63.56l-.48,13h0a10.83,10.83,0,0,0,1.9.17,10.71,10.71,0,0,0,1.89-.17h0l-.49-13A21.28,21.28,0,0,0,65,43.77L78,44.25v0a10.63,10.63,0,0,0,.16-1.89,10.83,10.83,0,0,0-.16-1.9m-29.26,1.9a5.16,5.16,0,0,1-.07.79l13.48.51a18.33,18.33,0,0,1-17,17l-.51-13.47a4.92,4.92,0,0,1-.78.07,5,5,0,0,1-.79-.07l-.51,13.47a18.33,18.33,0,0,1-17-17L39,43.15a4.49,4.49,0,0,1,0-1.58l-13.48-.51a18.35,18.35,0,0,1,17-17l.51,13.48a5,5,0,0,1,.79-.07,4.92,4.92,0,0,1,.78.07l.51-13.48a18.35,18.35,0,0,1,17,17l-13.48.51a5.16,5.16,0,0,1,.07.79"/><path class="cls-2" d="M154.36,21.12H138.72V63.6h15.64c13.45,0,22.09-8.78,22.09-21.24s-8.64-21.24-22.09-21.24m-.56,35h-6.52V28.63h6.52c7.71,0,13.8,4.81,13.8,13.73,0,8.64-6.09,13.73-13.8,13.73"/><polygon class="cls-2" points="126.37 21.12 112.21 40.17 98.05 21.12 91.26 21.12 91.26 63.59 99.75 63.59 99.75 36.98 110.51 51.14 113.91 51.14 124.67 36.98 124.67 63.59 133.16 63.59 133.16 21.12 126.37 21.12"/><polygon class="cls-2" points="174.79 21.12 174.79 28.63 187.39 28.63 187.39 63.59 195.95 63.59 195.95 28.63 208.62 28.63 208.62 21.12 174.79 21.12"/></g></g></svg>